<?xml version="1.0" encoding="utf-8" ?>
<svg xmlns="http://www.w3.org/2000/svg" xmlns:xlink="http://www.w3.org/1999/xlink" width="628" height="494">
	<path fill="#171617" d="M327.584 266.738C330.808 272.351 332.053 278.538 333.349 284.795C335.829 296.76 337.173 308.82 338.934 320.897C339.702 326.159 340.268 331.39 341.522 336.578L330.145 336.705L316.554 336.988L327.584 266.738Z"/>
	<path fill="#171617" d="M318.286 359.218L333.155 359.151C335.833 359.106 338.848 358.779 341.495 359.103C342.112 359.179 342.477 359.338 342.978 359.697L360.178 474.998L337.891 475.01L295.952 475.348L302.99 433.616L308.872 397.408L312.481 370.883C313.013 367.263 313.258 363.342 314.333 359.844C315.503 359.083 316.904 359.28 318.286 359.218Z"/>
	<path fill="#171617" d="M331.07 262.399C339.333 264.611 346.632 269.93 352.628 275.894C357.225 280.466 361.268 285.767 365.289 290.843L391.956 326.727L438.566 387.327C448.56 399.732 458.559 412.493 469.701 423.893C466.543 426.582 463.095 428.756 459.634 431.026L447.527 438.751L411.863 461.158C409.571 455.252 406.601 449.557 403.826 443.864L393.88 422.843L373.539 374.103L355.669 322.365L348.566 299.121C345.828 290.986 342.412 282.831 338.645 275.12C336.462 270.651 333.565 266.68 331.07 262.399Z"/>
	<path fill="#171617" d="M323.864 263.252L324.439 263.258L324.945 263.865C324.517 265.601 322.954 267.039 322.024 268.578L317.852 276.225C315.085 281.867 312.732 288.113 310.638 294.032L304.247 314.295L288.679 362.9C282.666 379.896 275.387 396.521 267.898 412.906L244.813 460.517C243.683 460.307 242.605 459.495 241.622 458.919L235.274 454.962L222.376 446.833L210.57 439.469L187.283 424.516C189.072 422.069 191.271 420.026 193.309 417.796L202.593 407.183L215.529 391.233L238.777 362.414L248.788 348.708L279.94 306.586C286.52 297.636 292.607 288.335 300.178 280.158C306.588 273.234 314.58 265.846 323.864 263.252Z"/>
	<path fill="#171617" d="M314.957 49.4972C323.074 49.3619 331.334 49.1033 339.437 49.5367C357.031 50.4776 374.75 53.6992 391.649 58.6829C397.832 60.5062 403.659 63.145 409.588 65.6334C457.223 85.6256 495.706 122.7 520.16 167.969C525.326 177.532 529.407 187.523 533.125 197.722C536.958 208.232 540.345 218.551 542.649 229.53C544.372 237.742 545.095 246.139 545.743 254.493L546.721 267.199C546.97 275.135 546.533 282.949 546.002 290.855C545.785 294.088 545.747 297.385 545.34 300.598C543.831 312.53 540.891 324.542 537.388 336.04C533.248 349.624 527.57 363.431 520.579 375.806C517.512 381.235 513.923 386.432 510.477 391.628L507.35 396.293C506.761 397.209 506.314 398.29 505.344 398.802C503.442 398.295 500.729 395.255 499.178 393.886L490.097 386.115L435.276 337.914L422.388 327.095L390.584 298.257L374.319 283.999C364.094 275.213 353.374 266.841 340.632 262.051L338.378 261.351C329.06 258.82 317.669 260.382 309.032 264.478C303.425 267.137 298.498 270.976 293.602 274.736C281.476 284.05 270.575 294.527 259.081 304.553L237.393 323.681L228.086 331.633L218.004 341.099L183.729 371.091L165.798 387.132C161.137 391.319 156.609 396.115 151.121 399.236L141.137 383.065L133.71 369.716C123.743 351.022 117.455 330.846 113.65 310.064C112.415 303.324 111.2 296.386 110.758 289.54C110.06 278.736 110.55 267.505 111.407 256.72C111.966 249.681 112.552 242.672 113.734 235.701C119.677 200.663 134.375 166.468 155.6 137.96C159.989 132.065 164.959 126.472 169.793 120.942C177.146 112.531 185.501 105.024 194.094 97.9048C208.65 85.8459 224.224 75.5053 241.433 67.5798C264.258 57.0677 289.956 51.174 314.957 49.4972ZM319.391 75.2483C312.305 75.9151 305.224 76.1601 298.289 77.8608C297.897 94.8665 298.071 112.145 299.538 129.096L304.111 165.149L306.844 183.523C307.765 188.464 309.15 193.362 310.365 198.236C312.927 208.507 315.723 218.626 320.099 228.295C321.735 231.908 323.645 235.253 325.773 238.591C326.389 239.559 327.118 241.03 327.952 241.795C328.207 242.03 328.288 242.044 328.565 242.167C330.464 241.23 331.623 238.684 332.704 236.926C344.215 216.406 349.042 192.378 352.63 169.363C355.451 151.262 357.322 133.279 358.196 114.98L358.721 78.4549C352.078 77.1536 345.208 75.8903 338.457 75.3238C332.346 74.8109 325.515 74.9099 319.391 75.2483ZM395.935 89.6768C401.547 117.053 411.413 143.005 424.968 167.41C436.934 188.956 451.173 208.532 469.339 225.313C475.234 230.758 481.662 236.318 488.379 240.728C493.664 244.197 498.967 247.902 504.462 251.015C508.562 253.337 513.218 255.257 517.618 256.929C517.145 251.348 516.837 245.582 515.923 240.059C508.285 193.905 482.745 151.275 447.046 121.233C437.393 113.109 427.225 106 416.329 99.6589C409.646 95.7703 403.256 92.2732 395.935 89.6768ZM260.081 89.6927C251.804 92.5705 243.861 97.0144 236.377 101.512C207.575 118.824 182.899 144.429 165.885 173.379C162.625 178.926 159.811 184.803 157.01 190.592C153.052 198.773 150.102 207.198 147.398 215.853C144.88 223.911 142.568 232.116 141.164 240.458C140.694 243.248 140.56 246.1 140.263 248.912C140.085 250.604 139.279 254.791 139.866 256.244L139.981 256.446L141.147 256.199C153.826 250.513 165.664 242.779 176.518 234.155C210.221 207.376 234.502 170.2 249.761 130.213C253.839 119.527 256.853 108.633 259.462 97.5121C260.038 95.0564 261.052 92.1053 261.175 89.593C260.775 89.5934 260.471 89.5906 260.081 89.6927ZM466.514 257.257L466.636 302.703C466.621 312.22 466.156 321.994 466.721 331.48C466.773 332.359 466.92 333.035 467.545 333.655C469.281 335.376 471.577 336.779 473.55 338.225C477.469 341.097 481.5 344.211 485.859 346.393L486.199 346.045L486.673 274.522L466.514 257.257ZM189.83 257.732C187.456 259.275 185.597 261.237 183.522 263.134L176.737 268.885C174.731 270.561 172.756 272.358 170.501 273.695L170.401 346.045C170.69 346.238 170.746 346.321 171.104 346.352C175.537 343.618 179.676 340.259 183.937 337.253C185.998 335.799 188.034 334.215 190.347 333.185L190.354 267.982L190.291 260.433C190.287 260.008 190.428 258.595 190.271 258.255C190.175 258.048 189.977 257.907 189.83 257.732ZM223.974 222.775C221.879 224.325 220.766 226.421 219.177 228.42C215.601 232.917 211.858 237.965 207.369 241.581L207.279 301.036L207.262 314.615C207.25 316.248 206.872 318.145 207.167 319.732L207.78 319.674C211.637 317.208 215.403 314.183 219.081 311.427C220.695 310.217 222.297 308.748 224.081 307.817L224.288 223.053L223.974 222.775ZM432.781 223.082C432.472 225.995 432.802 228.902 432.835 231.821L432.791 246.847L432.738 308.861C434.85 310.056 436.586 311.612 438.528 313.044L448.955 320.556C449.472 315.084 449.275 309.5 449.287 304.007L449.364 278.524L449.423 253.385C449.409 249.341 449.65 245.078 449.21 241.065L448.967 240.896C445.568 238.432 442.403 234.459 439.719 231.208L434.628 224.574C434.421 224.308 433.668 223.161 433.407 223.035C433.218 222.945 432.99 223.066 432.781 223.082ZM405.551 180.924L405.726 216.779L405.724 287.818C405.728 288.447 405.731 288.674 406.189 289.144C409.36 292.401 413.532 295.099 417.197 297.811L417.372 231.245L417.373 214.59C417.372 210.744 417.182 206.809 417.854 203.008C415.261 199.108 412.713 195.203 410.56 191.038L407.549 184.982C406.921 183.59 406.504 182.14 405.551 180.924ZM250.971 182.912C246.229 188.888 244.661 197.067 239.371 202.853L239.263 297.842C241.273 296.584 242.727 294.983 244.546 293.53C246.573 291.911 248.696 290.707 250.63 288.911L250.505 200.779L250.601 190.589C250.686 188.818 251.609 184.317 250.971 182.912ZM272.022 134.358C270.216 139.116 268.998 143.968 267.464 148.806C266.852 150.738 265.411 153.525 265.238 155.467C264.933 158.915 265.153 162.59 265.136 166.059L265.007 184.521L265.076 240.719L265.222 266.541C265.233 270.476 264.8 275 265.342 278.874C267.218 277.655 270.041 276.411 271.634 274.901C272.539 268.548 272.072 261.636 272.068 255.218L272.059 220.155L272.034 154.128L271.943 141.328C271.966 139.026 272.207 136.65 272.022 134.358ZM385.118 136.302L385.457 275.371C387.115 276.558 389.563 278.947 391.427 279.577C392.094 278.728 391.956 278.599 391.924 277.549L391.534 188.79L391.499 164.671C391.495 161.416 391.878 157.769 391.523 154.561C391.477 154.147 391.338 153.749 391.209 153.355C390.319 150.647 386.754 137.144 385.118 136.302ZM151.159 282.57L140.133 288.444C140.743 298.63 141.767 308.535 144.168 318.479L148.375 333.08L151.646 341.805C152.669 334.719 152.063 326.998 152.037 319.837L151.955 282.85C151.647 282.682 151.515 282.603 151.159 282.57ZM505.073 283.904C505.532 287.353 505.244 291.169 505.249 294.653L505.257 315.007L505.247 331.72C505.243 334.356 505.499 337.408 505.084 340.002C505.488 340.158 505.507 340.058 505.895 339.912C512.719 324.046 516.311 306.517 517.542 289.369C514.738 288.196 512.009 286.788 509.321 285.372C508.077 284.717 507 283.849 505.65 283.41L505.073 283.904ZM371.459 155.007C370.761 156.141 370.887 157.612 370.834 158.911L370.525 167.563L370.463 237.638L370.499 256.131C370.514 258.602 370.179 261.834 370.731 264.208C370.865 264.786 371.064 264.902 371.495 265.272L372.36 265.399C373.284 263.45 373.312 163.459 372.176 155.18C371.96 155.122 371.68 155.014 371.459 155.007ZM285.009 155.007L284.566 265.092L285.022 265.621L286.085 265.479L286.508 264.785L286.774 240.805L286.825 199.348L286.727 175.579C286.685 168.693 286.793 161.935 285.636 155.129C285.152 154.95 285.365 154.952 285.009 155.007Z"/>
	<path fill="#0D0D0D" d="M505.084 340.002L504.508 340.34L504.024 339.759L504.04 300.032L504.053 288.711C504.056 287.167 503.762 285.143 504.478 283.751L505.073 283.904C505.532 287.353 505.244 291.169 505.249 294.653L505.257 315.007L505.247 331.72C505.243 334.356 505.499 337.408 505.084 340.002Z"/>
</svg>
